<svg xmlns="http://www.w3.org/2000/svg" width="960" height="600">
  <rect width="100%" height="100%" fill="white"/>
  <text x="480.0" y="30" text-anchor="middle" font-size="20" font-family="Arial">
    Distribution of Simulation_FF - JV_default_FF (After Cleaning)
  </text>
  <line x1="80" y1="520" x2="920" y2="520" stroke="#111" stroke-width="2"/>
  <line x1="80" y1="60" x2="80" y2="520" stroke="#111" stroke-width="2"/>
  <rect x="80.00" y="517.99" width="20.00" height="2.01" fill="#3B82F6" opacity="0.85" /><rect x="101.00" y="520.00" width="20.00" height="0.00" fill="#3B82F6" opacity="0.85" /><rect x="122.00" y="517.99" width="20.00" height="2.01" fill="#3B82F6" opacity="0.85" /><rect x="143.00" y="520.00" width="20.00" height="0.00" fill="#3B82F6" opacity="0.85" /><rect x="164.00" y="520.00" width="20.00" height="0.00" fill="#3B82F6" opacity="0.85" /><rect x="185.00" y="515.98" width="20.00" height="4.02" fill="#3B82F6" opacity="0.85" /><rect x="206.00" y="520.00" width="20.00" height="0.00" fill="#3B82F6" opacity="0.85" /><rect x="227.00" y="513.97" width="20.00" height="6.03" fill="#3B82F6" opacity="0.85" /><rect x="248.00" y="517.99" width="20.00" height="2.01" fill="#3B82F6" opacity="0.85" /><rect x="269.00" y="515.98" width="20.00" height="4.02" fill="#3B82F6" opacity="0.85" /><rect x="290.00" y="515.98" width="20.00" height="4.02" fill="#3B82F6" opacity="0.85" /><rect x="311.00" y="505.94" width="20.00" height="14.06" fill="#3B82F6" opacity="0.85" /><rect x="332.00" y="379.39" width="20.00" height="140.61" fill="#3B82F6" opacity="0.85" /><rect x="353.00" y="250.83" width="20.00" height="269.17" fill="#3B82F6" opacity="0.85" /><rect x="374.00" y="220.70" width="20.00" height="299.30" fill="#3B82F6" opacity="0.85" /><rect x="395.00" y="168.47" width="20.00" height="351.53" fill="#3B82F6" opacity="0.85" /><rect x="416.00" y="96.16" width="20.00" height="423.84" fill="#3B82F6" opacity="0.85" /><rect x="437.00" y="60.00" width="20.00" height="460.00" fill="#3B82F6" opacity="0.85" /><rect x="458.00" y="214.67" width="20.00" height="305.33" fill="#3B82F6" opacity="0.85" /><rect x="479.00" y="289.00" width="20.00" height="231.00" fill="#3B82F6" opacity="0.85" /><rect x="500.00" y="341.22" width="20.00" height="178.78" fill="#3B82F6" opacity="0.85" /><rect x="521.00" y="413.54" width="20.00" height="106.46" fill="#3B82F6" opacity="0.85" /><rect x="542.00" y="401.48" width="20.00" height="118.52" fill="#3B82F6" opacity="0.85" /><rect x="563.00" y="435.63" width="20.00" height="84.37" fill="#3B82F6" opacity="0.85" /><rect x="584.00" y="445.68" width="20.00" height="74.32" fill="#3B82F6" opacity="0.85" /><rect x="605.00" y="463.76" width="20.00" height="56.24" fill="#3B82F6" opacity="0.85" /><rect x="626.00" y="463.76" width="20.00" height="56.24" fill="#3B82F6" opacity="0.85" /><rect x="647.00" y="481.83" width="20.00" height="38.17" fill="#3B82F6" opacity="0.85" /><rect x="668.00" y="503.93" width="20.00" height="16.07" fill="#3B82F6" opacity="0.85" /><rect x="689.00" y="497.90" width="20.00" height="22.10" fill="#3B82F6" opacity="0.85" /><rect x="710.00" y="507.95" width="20.00" height="12.05" fill="#3B82F6" opacity="0.85" /><rect x="731.00" y="517.99" width="20.00" height="2.01" fill="#3B82F6" opacity="0.85" /><rect x="752.00" y="511.97" width="20.00" height="8.03" fill="#3B82F6" opacity="0.85" /><rect x="773.00" y="515.98" width="20.00" height="4.02" fill="#3B82F6" opacity="0.85" /><rect x="794.00" y="513.97" width="20.00" height="6.03" fill="#3B82F6" opacity="0.85" /><rect x="815.00" y="513.97" width="20.00" height="6.03" fill="#3B82F6" opacity="0.85" /><rect x="836.00" y="520.00" width="20.00" height="0.00" fill="#3B82F6" opacity="0.85" /><rect x="857.00" y="515.98" width="20.00" height="4.02" fill="#3B82F6" opacity="0.85" /><rect x="878.00" y="520.00" width="20.00" height="0.00" fill="#3B82F6" opacity="0.85" /><rect x="899.00" y="515.98" width="20.00" height="4.02" fill="#3B82F6" opacity="0.85" />
  <line x1="-291.60" y1="60" x2="-291.60" y2="520" stroke="#EF4444" stroke-width="2" stroke-dasharray="8 6"/>
  <text x="-291.60" y="50" text-anchor="middle" font-size="12" fill="#EF4444" font-family="Arial">
    threshold -1.0
  </text>
  <text x="500.0" y="580" text-anchor="middle" font-size="14" font-family="Arial">FF delta</text>
  <text x="24" y="290.0" transform="rotate(-90,24,290.0)" text-anchor="middle" font-size="14" font-family="Arial">Count</text>
</svg>
